<svg xmlns="http://www.w3.org/2000/svg" width="32" height="32" viewBox="0 0 24 24"><path fill="currentColor" d="M21.9 14.1c-.5-3.3-2.3-6.1-4.8-8.1l-2.8 2.8c1.6 1.3 2.8 3.1 3.2 5.3zm-5.3-5.3L12 4.2c-1 .2-1.9.5-2.8.9l2.8 2.8c.6-.2 1.2-.3 1.7-.3m-3.9 3.9L8.1 8.1c-.4.9-.7 1.8-.9 2.8l2.8 2.8c.1-.6.2-1.1.3-1.7m3.9 3.9l-2.8 2.8c-1.3-1.6-2.5-3.4-3.2-5.3l-2.8 2.8c2 2.5 4.8 4.3 8.1 4.8zM2 12c0 5.5 4.5 10 10 10V2C6.5 2 2 6.5 2 12m4.1-6.1C7.8 4.2 9.8 3 12 3v1.1c-1.9.2-3.7 1-5.1 2.3zm-1.8 1.8C3 9.3 2.2 11.1 2.2 13H1c-.2-2.3.6-4.5 2-6.3z"/></svg>